<svg id="Capa_1" enable-background="new 0 0 128 128" height="512" viewBox="0 0 128 128" width="512" xmlns="http://www.w3.org/2000/svg"><path d="m126.25 93.372h-27.125c-12.433.012-23.797 7.03-29.375 18.141v-28.932c.762-1.607 1.393-3.273 1.888-4.981 4.106 3.065 8.705 5.406 13.6 6.921.16.046.325.07.491.07.807-.001 1.509-.552 1.7-1.336 1.136-4.997 1.409-10.151.806-15.24 4.481 1.046 9.115 1.266 13.674.647.954-.151 1.606-1.046 1.455-2-.019-.121-.051-.24-.095-.355-1.751-4.258-4.258-8.164-7.4-11.53 4.706-2.019 9.032-4.826 12.793-8.3.699-.668.725-1.776.057-2.476-.019-.02-.038-.039-.057-.057-3.76-3.477-8.087-6.287-12.793-8.307 3.142-3.365 5.649-7.271 7.4-11.529.347-.902-.104-1.915-1.006-2.261-.114-.044-.233-.076-.354-.095-4.559-.613-9.19-.397-13.672.638.601-5.086.328-10.237-.808-15.231-.228-.939-1.174-1.514-2.113-1.286-.026.006-.052.013-.078.021-4.895 1.514-9.495 3.854-13.6 6.92-1.344-4.4-3.471-8.522-6.278-12.168-.66-.751-1.803-.825-2.554-.166-.059.052-.114.107-.166.166-2.806 3.644-4.933 7.764-6.278 12.163-4.105-3.066-8.705-5.406-13.6-6.92-.927-.271-1.899.26-2.17 1.187-.008.026-.015.052-.021.078-1.135 4.994-1.409 10.145-.808 15.231-4.482-1.034-9.113-1.25-13.672-.638-.955.151-1.606 1.047-1.455 2.002.019.121.051.24.095.354 1.752 4.258 4.259 8.163 7.4 11.529-4.706 2.021-9.033 4.83-12.794 8.307-.699.669-.724 1.779-.054 2.479.018.019.036.037.054.054 3.761 3.476 8.088 6.285 12.794 8.305-3.142 3.366-5.649 7.272-7.4 11.53-.346.902.104 1.913 1.005 2.26.115.044.234.076.355.095 1.711.239 3.438.354 5.166.343 2.865.012 5.721-.32 8.507-.99-.602 5.089-.329 10.243.807 15.24.191.784.893 1.335 1.7 1.336.166 0 .331-.024.491-.07 4.895-1.515 9.494-3.856 13.6-6.921.495 1.708 1.126 3.374 1.888 4.981v28.932c-5.578-11.111-16.942-18.129-29.375-18.141h-27.125c-.966 0-1.75.784-1.75 1.75.019 18.149 14.726 32.857 32.875 32.878h62.25c18.149-.021 32.856-14.729 32.875-32.878 0-.967-.784-1.75-1.75-1.75zm-64.5-11.637c-1.744-3.274-2.722-6.902-2.861-10.609.093-3.605 1.151-7.12 3.064-10.177 1.36.197 2.74.197 4.1 0 1.913 3.057 2.971 6.572 3.064 10.177-.139 3.707-1.117 7.335-2.861 10.609-.11.22-2.212 3.847-2.256 3.913-.044-.066-2.25-3.913-2.25-3.913zm-10.142-36.53c.002-6.844 5.551-12.391 12.395-12.389s12.391 5.551 12.389 12.395c-.002 6.843-5.549 12.389-12.392 12.389-6.842-.008-12.386-5.553-12.392-12.395zm32.792 35.337c-2.79-1.026-8.192-3.327-11.961-6.872.11-.844.168-1.693.175-2.544-.071-3.883-1.118-7.685-3.044-11.057 1.639-.612 3.167-1.49 4.52-2.6 1.956 3.351 4.724 6.156 8.049 8.156.74.42 1.505.794 2.29 1.121 1.187 5.038.479 10.867-.029 13.796zm-.509-17.942c-3.079-1.885-5.595-4.561-7.287-7.75.84-1.089 1.536-2.282 2.069-3.55 3.6-.126 7.169.715 10.334 2.436 5.1 2.944 8.472 8.608 10.02 11.7-3.444.198-10.027.111-15.136-2.836zm8.989-10.486c-.678-.513-1.387-.984-2.123-1.41-3.398-1.882-7.216-2.877-11.1-2.894.311-1.723.311-3.487 0-5.21 3.885-.02 7.702-1.017 11.1-2.9.735-.423 1.444-.891 2.123-1.4 4.95 1.493 9.639 5.011 11.923 6.911-2.281 1.894-6.962 5.409-11.923 6.903zm6.149-27.132c-1.543 3.085-4.909 8.74-10.022 11.692-3.166 1.72-6.734 2.561-10.335 2.436-.534-1.267-1.23-2.46-2.072-3.547 1.692-3.189 4.208-5.865 7.287-7.749 5.102-2.944 11.695-3.034 15.142-2.832zm-14.629-15.115c.5 2.925 1.213 8.744.034 13.776-.789.333-1.557.713-2.3 1.139-3.324 2.001-6.092 4.805-8.049 8.156-1.353-1.11-2.881-1.988-4.52-2.6 1.926-3.372 2.973-7.174 3.044-11.057-.007-.851-.065-1.7-.175-2.544 3.776-3.537 9.178-5.844 11.966-6.87zm-20.4-5.106c1.9 2.885 5.116 8.637 5.116 14.522-.093 3.605-1.151 7.12-3.064 10.177-1.36-.196-2.74-.196-4.1 0-1.913-3.057-2.971-6.572-3.064-10.177-.004-5.883 3.212-11.637 5.112-14.522zm-20.4 5.106c2.79 1.026 8.192 3.328 11.961 6.872-.11.844-.168 1.693-.175 2.544.07 3.883 1.116 7.685 3.042 11.057-1.639.612-3.167 1.49-4.52 2.6-1.957-3.351-4.725-6.155-8.049-8.156-.743-.426-1.511-.806-2.3-1.138-1.174-5.034-.466-10.854.041-13.779zm.511 17.947c3.079 1.884 5.597 4.56 7.289 7.749-.84 1.088-1.535 2.28-2.068 3.547-3.601.125-7.169-.716-10.335-2.436-5.1-2.944-8.472-8.608-10.02-11.695 3.438-.206 10.018-.118 15.132 2.835zm-8.991 10.486c.679.512 1.388.983 2.123 1.41 3.398 1.883 7.215 2.88 11.1 2.9-.311 1.723-.311 3.488 0 5.211-3.884.018-7.701 1.013-11.1 2.893-.735.427-1.444.898-2.123 1.41-4.949-1.492-9.637-5.009-11.921-6.909 2.284-1.91 6.972-5.427 11.921-6.915zm-6.149 27.127c1.543-3.085 4.909-8.739 10.022-11.692 3.165-1.72 6.734-2.561 10.334-2.435.535 1.267 1.232 2.459 2.073 3.546-1.692 3.189-4.208 5.865-7.287 7.75-5.102 2.942-11.696 3.032-15.142 2.831zm14.629 15.115c-.506-2.929-1.215-8.758-.03-13.794.786-.327 1.551-.701 2.291-1.121 3.325-2 6.093-4.805 8.049-8.156 1.353 1.11 2.881 1.988 4.52 2.6-1.926 3.372-2.973 7.174-3.044 11.057.007.851.065 1.7.175 2.544-3.771 3.543-9.173 5.844-11.961 6.87zm-40.048 16.33h25.323c15.085.02 27.709 11.448 29.225 26.457l-38.187-19.266c-.866-.429-1.916-.075-2.345.791-.425.857-.082 1.897.769 2.334l34.309 17.312h-19.771c-15.538-.018-28.381-12.119-29.323-27.628zm58.2-8.3c.491.692.83 1.12.89 1.194.609.751 1.712.866 2.463.257.094-.077.657-.757 1.147-1.451v35.928h-4.5zm33.373 35.928h-19.771l34.309-17.309c.86-.441 1.199-1.496.758-2.356-.437-.851-1.477-1.194-2.334-.769l-38.187 19.263c1.516-15.009 14.14-26.437 29.225-26.457h25.323c-.942 15.509-13.785 27.61-29.323 27.628z"/></svg>