<svg xmlns="http://www.w3.org/2000/svg" height="512" viewBox="0 0 512 512" width="512"><path d="M467 0H45C20.187 0 0 20.188 0 45v22.855c0 37.02 12.734 73.329 35.863 102.235 19.235 24.043 46.594 42.875 77.04 53.023l15.898 5.297c18.465 30.086 47.426 53.262 82.199 64.27V316c0 8.27-6.73 15-15 15-24.813 0-45 20.188-45 45v15h-15c-8.285 0-15 6.715-15 15v76h-15c-8.285 0-15 6.715-15 15s6.715 15 15 15h300c8.285 0 15-6.715 15-15s-6.715-15-15-15h-15v-76c0-8.285-6.715-15-15-15h-15v-15c0-24.813-20.188-45-45-45-8.27 0-15-6.73-15-15v-23.32c34.734-10.996 63.668-34.13 82.137-64.168l16.765-5.336.192-.063c29.996-10 56.293-28.336 76.043-53.023C499.266 141.184 512 104.875 512 67.855V45c0-24.813-20.188-45-45-45zM59.29 151.348C40.401 127.738 30 98.09 30 67.855V45c0-8.27 6.73-15 15-15h47.574l15.266 137.39a147.754 147.754 0 0 0 4.586 23.5c-20.977-8.816-39.582-22.6-53.137-39.542zM151 482v-61h210v61zm131.637-215.383A14.997 14.997 0 0 0 271 281.234V316c0 24.813 20.188 45 45 45 8.27 0 15 6.73 15 15v15H181v-15c0-8.27 6.73-15 15-15 24.813 0 45-20.188 45-45v-34.766c0-6.988-4.824-13.05-11.637-14.617-49.3-11.344-86.152-52.55-91.707-102.539L122.758 30h266.484l-14.898 134.078c-5.555 49.988-42.406 91.195-91.707 102.54zM482 67.855c0 30.235-10.402 59.883-29.29 83.493a133.318 133.318 0 0 1-53.269 40.007 147.711 147.711 0 0 0 4.72-23.964L419.425 30H467c8.27 0 15 6.73 15 15zm0 0" data-original="#000000" class="active-path" data-old_color="#000000" fill="#FFF"/><path d="M318.105 102.71l-33.707-4.78-15.011-29.696a14.999 14.999 0 0 0-26.774 0L227.602 97.93l-33.711 4.78a15.002 15.002 0 0 0-8.235 25.716l24.18 23.012-5.691 32.394a15.006 15.006 0 0 0 5.87 14.672 15.008 15.008 0 0 0 15.75 1.27L256 184.253l30.23 15.52a14.996 14.996 0 0 0 15.75-1.27 15.004 15.004 0 0 0 5.875-14.672l-5.69-32.394 24.175-23.012a14.993 14.993 0 0 0 3.945-15.438 15.002 15.002 0 0 0-12.18-10.277zm-42.445 32.536a14.994 14.994 0 0 0-4.433 13.465l1.859 10.594-10.238-5.254a15 15 0 0 0-13.7 0l-10.238 5.254 1.863-10.594c.868-4.95-.796-10-4.433-13.465l-7.55-7.184 10.776-1.53a14.991 14.991 0 0 0 11.278-8.083L256 108.25l5.152 10.195a15 15 0 0 0 11.282 8.086l10.777 1.528zm0 0" data-original="#000000" class="active-path" data-old_color="#000000" fill="#FFF"/></svg>