<?xml version="1.0"?>
<svg xmlns="http://www.w3.org/2000/svg" xmlns:xlink="http://www.w3.org/1999/xlink" version="1.1" id="Capa_1" x="0px" y="0px" viewBox="0 0 512.001 512.001" style="enable-background:new 0 0 512.001 512.001;" xml:space="preserve" width="512px" height="512px" class=""><g><g>
	<g>
		<g>
			<path d="M499.517,454.828h-73.614V195.192h21.727c5.255,0,9.843-3.179,11.688-8.1c1.845-4.921,0.479-10.333-3.481-13.788     l-41.838-36.511c0.01-0.162,0.025-0.323,0.025-0.488v-18.938c0-4.136-3.353-7.49-7.49-7.49c-4.137,0-7.49,3.353-7.49,7.49v6.376     l-54.439-47.507V57.003h54.439v11.351c0,4.136,3.353,7.49,7.49,7.49c4.137,0,7.49-3.353,7.49-7.49v-11.93     c5.055-1.597,8.73-6.328,8.73-11.904V26.046c0-6.883-5.6-12.483-12.483-12.483h-76.893c-6.883,0-12.483,5.6-12.483,12.483V44.52     c0,5.576,3.676,10.308,8.731,11.904v6.74L264.208,6.076c-4.68-4.084-11.737-4.084-16.416-0.001l-191.63,167.23     c-3.959,3.455-5.325,8.868-3.48,13.788c1.845,4.92,6.433,8.1,11.688,8.1h21.727v33.08c0,4.136,3.353,7.49,7.49,7.49     c4.136,0,7.49-3.353,7.49-7.49v-33.08h309.848v259.636H101.076V281.736c0-4.136-3.353-7.49-7.49-7.49     c-4.136,0-7.49,3.353-7.49,7.49v173.091H12.483C5.6,454.828,0,460.428,0,467.311v29.194c0,6.883,5.6,12.483,12.483,12.483     h487.035c6.883,0,12.483-5.6,12.483-12.483v-29.194C512,460.428,506.4,454.828,499.517,454.828z M407.774,28.543v13.481h-1.24     h-69.418h-1.241V28.543H407.774z M93.586,180.213H71.028L256,18.794l184.972,161.419h-22.558H93.586z M14.979,494.008v-24.201     h78.607h324.827h78.607v24.201H14.979z" data-original="#000000" class="active-path" data-old_color="#000000" fill="#333333"/>
			<path d="M214.007,358.253c8.818-6.133,33.668-26.024,38.388-58.223c3.995-27.256-7.442-55.773-33.954-84.714l-6.363-7.06     c-1.422-1.578-3.446-2.479-5.571-2.479c-2.124,0-4.148,0.901-5.571,2.479l-6.323,7.015     c-26.552,28.985-37.989,57.502-33.994,84.758c4.719,32.199,29.569,52.09,38.388,58.223v6.115     c0,21.908-7.732,43.207-21.773,59.973c-2.66,3.176-2.241,7.906,0.935,10.565c1.405,1.176,3.112,1.75,4.812,1.75     c2.143,0,4.271-0.914,5.754-2.685c6.482-7.74,11.784-16.322,15.846-25.439c9.296,10.753,27.935,27.831,54.566,31.015     c2.896,0.346,5.803,0.52,8.718,0.52c24.609,0,49.828-12.327,75.065-36.709l6.889-6.548c1.54-1.464,2.387-3.511,2.33-5.635     c-0.058-2.123-1.012-4.123-2.628-5.503l-7.181-6.135c-29.681-25.772-58.492-36.448-85.631-31.732     c-18.706,3.251-33.033,13.243-42.904,22.788c0.119-2.069,0.202-4.143,0.202-6.224V358.253z M205.714,225.359l0.793-0.879     l0.833,0.924c5.245,5.725,9.818,11.394,13.729,16.998l-15.146,21.787l-15.959-18.856     C194.292,238.763,199.537,232.102,205.714,225.359z M182.107,259.268l18.675,22.065c0.032,0.038,0.069,0.07,0.102,0.108     c0.118,0.134,0.241,0.264,0.369,0.39c0.076,0.075,0.152,0.147,0.23,0.218c0.109,0.098,0.222,0.192,0.337,0.284     c0.102,0.082,0.203,0.162,0.308,0.238c0.034,0.024,0.064,0.052,0.098,0.076c0.039,0.027,0.083,0.045,0.122,0.072     c0.248,0.166,0.503,0.315,0.766,0.449c0.063,0.032,0.123,0.067,0.187,0.097c0.304,0.144,0.615,0.267,0.933,0.368     c0.082,0.026,0.166,0.044,0.249,0.068c0.242,0.068,0.486,0.124,0.733,0.167c0.106,0.018,0.211,0.037,0.317,0.051     c0.305,0.04,0.611,0.066,0.919,0.068c0.017,0,0.033,0.004,0.05,0.004c0.003,0,0.006,0,0.009,0h0.001     c0.265,0,0.53-0.019,0.795-0.047c0.065-0.007,0.129-0.016,0.194-0.025c0.222-0.029,0.443-0.069,0.663-0.119     c0.047-0.01,0.094-0.019,0.14-0.031c0.268-0.066,0.533-0.145,0.794-0.241c0.019-0.007,0.038-0.016,0.057-0.023     c0.228-0.086,0.452-0.185,0.673-0.295c0.07-0.035,0.14-0.071,0.209-0.109c0.173-0.093,0.343-0.193,0.511-0.301     c0.07-0.045,0.141-0.086,0.21-0.134c0.203-0.14,0.403-0.289,0.595-0.453c0.007-0.006,0.014-0.013,0.021-0.02     c0.078-0.066,0.15-0.141,0.225-0.211c0.139-0.128,0.275-0.259,0.402-0.395c0.065-0.071,0.127-0.145,0.19-0.218     c0.137-0.159,0.266-0.322,0.387-0.489c0.028-0.038,0.06-0.071,0.087-0.11l16.888-24.292c2.804,5.541,4.924,11.01,6.358,16.399     l-29.539,35.959l-29.657-34.443C177.923,269.419,179.723,264.375,182.107,259.268z M332.551,390.901l0.9,0.77l-0.901,0.857     c-6.726,6.498-13.395,12.02-19.996,16.578l-17.65-16.09l17.477-17.197C318.994,379.947,325.72,384.969,332.551,390.901z      M282.823,363.223c5.145,1.11,10.38,2.843,15.698,5.191l-19.782,19.465c-0.048,0.047-0.089,0.099-0.135,0.147     c-0.048,0.05-0.1,0.094-0.147,0.146c-0.041,0.044-0.074,0.093-0.113,0.138c-0.087,0.1-0.17,0.202-0.251,0.305     c-0.075,0.095-0.147,0.191-0.216,0.289c-0.076,0.107-0.147,0.215-0.217,0.325c-0.064,0.102-0.127,0.205-0.186,0.309     c-0.062,0.109-0.12,0.219-0.175,0.331c-0.055,0.11-0.109,0.221-0.158,0.333c-0.048,0.11-0.093,0.22-0.135,0.331     c-0.045,0.117-0.088,0.235-0.127,0.354c-0.036,0.11-0.068,0.221-0.099,0.332c-0.034,0.123-0.066,0.245-0.093,0.369     c-0.025,0.111-0.046,0.222-0.065,0.334c-0.022,0.125-0.042,0.25-0.057,0.376c-0.014,0.113-0.024,0.226-0.033,0.34     c-0.01,0.125-0.017,0.249-0.021,0.374c-0.003,0.117-0.003,0.233-0.001,0.349c0.002,0.122,0.006,0.244,0.015,0.366     c0.008,0.119,0.02,0.238,0.034,0.356c0.014,0.119,0.029,0.237,0.048,0.355c0.02,0.12,0.043,0.239,0.069,0.359     c0.025,0.116,0.051,0.231,0.082,0.346c0.031,0.118,0.066,0.234,0.103,0.351c0.036,0.115,0.075,0.229,0.117,0.343     c0.042,0.112,0.087,0.223,0.134,0.334c0.049,0.115,0.1,0.228,0.155,0.341c0.051,0.105,0.106,0.209,0.163,0.312     c0.063,0.114,0.127,0.227,0.196,0.339c0.06,0.097,0.124,0.193,0.189,0.288c0.076,0.111,0.155,0.221,0.237,0.328     c0.07,0.091,0.143,0.181,0.218,0.27c0.088,0.104,0.178,0.206,0.273,0.307c0.039,0.042,0.073,0.087,0.114,0.128     c0.047,0.048,0.098,0.088,0.146,0.134c0.05,0.048,0.095,0.101,0.147,0.148l20.124,18.345c-6.084,3.015-12.099,5.176-18.033,6.474     l-30.375-29.122L282.823,363.223z M259.405,362.561c0.998-0.171,2.002-0.307,3.009-0.425l-27.777,26.985     c-0.033,0.032-0.06,0.067-0.092,0.099c-0.031,0.031-0.065,0.058-0.095,0.09c-0.056,0.059-0.104,0.122-0.158,0.182     c-0.09,0.1-0.179,0.2-0.263,0.303c-0.075,0.093-0.145,0.188-0.215,0.284c-0.078,0.107-0.156,0.214-0.228,0.324     c-0.065,0.1-0.126,0.202-0.186,0.305c-0.064,0.11-0.128,0.219-0.187,0.331c-0.057,0.109-0.108,0.219-0.159,0.329     c-0.051,0.11-0.101,0.221-0.146,0.333c-0.047,0.116-0.088,0.233-0.128,0.35c-0.038,0.111-0.076,0.222-0.109,0.334     c-0.035,0.121-0.065,0.242-0.094,0.364c-0.027,0.112-0.053,0.225-0.075,0.338c-0.023,0.123-0.042,0.246-0.059,0.37     c-0.016,0.115-0.032,0.229-0.042,0.344c-0.011,0.123-0.018,0.246-0.023,0.369c-0.005,0.117-0.01,0.234-0.009,0.351     c0,0.121,0.006,0.242,0.012,0.364c0.006,0.119,0.013,0.238,0.025,0.357c0.012,0.119,0.029,0.238,0.046,0.357     c0.018,0.119,0.036,0.238,0.059,0.357c0.023,0.117,0.051,0.233,0.08,0.349c0.029,0.118,0.059,0.236,0.094,0.354     c0.034,0.115,0.074,0.228,0.114,0.341c0.041,0.115,0.082,0.23,0.128,0.343s0.098,0.224,0.15,0.336     c0.051,0.109,0.103,0.218,0.16,0.326c0.059,0.112,0.123,0.22,0.188,0.33c0.061,0.103,0.123,0.205,0.189,0.306     c0.072,0.108,0.149,0.213,0.227,0.318c0.072,0.097,0.144,0.194,0.221,0.288c0.082,0.1,0.17,0.197,0.258,0.294     c0.056,0.061,0.105,0.127,0.164,0.187c0.031,0.032,0.066,0.059,0.098,0.091c0.032,0.031,0.059,0.066,0.091,0.097l25.726,24.665     c-24.794-3.206-41.679-22.065-47.584-29.707C218.355,386.858,234.442,366.841,259.405,362.561z M206.509,345.154h-0.001h-0.001     c-7.867-5.748-27.449-22.361-31.065-47.428c-0.102-0.709-0.191-1.42-0.267-2.133l25.648,29.787     c0.043,0.05,0.091,0.092,0.135,0.14c0.112,0.123,0.226,0.244,0.347,0.36c0.088,0.085,0.179,0.166,0.27,0.246     c0.058,0.051,0.11,0.106,0.171,0.155c0.029,0.024,0.061,0.039,0.09,0.062c0.309,0.247,0.631,0.471,0.969,0.663     c0.046,0.026,0.093,0.046,0.139,0.071c0.308,0.166,0.625,0.309,0.95,0.429c0.064,0.024,0.127,0.052,0.192,0.074     c0.344,0.117,0.696,0.206,1.052,0.271c0.087,0.016,0.174,0.028,0.261,0.042c0.362,0.054,0.726,0.09,1.091,0.091     c0.004,0,0.009,0.001,0.013,0.001c0.001,0,0.003,0,0.004,0s0.003,0,0.004,0c0.249,0,0.498-0.016,0.746-0.041     c0.064-0.006,0.128-0.017,0.191-0.025c0.188-0.024,0.375-0.053,0.561-0.091c0.072-0.015,0.144-0.031,0.215-0.047     c0.183-0.043,0.364-0.093,0.544-0.15c0.064-0.02,0.129-0.039,0.193-0.061c0.214-0.074,0.425-0.157,0.633-0.252     c0.025-0.011,0.051-0.02,0.076-0.032c0.225-0.105,0.446-0.223,0.662-0.351c0.079-0.047,0.154-0.1,0.231-0.149     c0.135-0.087,0.269-0.176,0.399-0.273c0.088-0.065,0.174-0.134,0.26-0.204c0.059-0.048,0.121-0.091,0.179-0.141     c0.056-0.048,0.104-0.102,0.159-0.151c0.089-0.082,0.177-0.164,0.263-0.251c0.123-0.124,0.239-0.251,0.352-0.381     c0.042-0.048,0.088-0.09,0.129-0.14l25.677-31.259c-0.098,1.251-0.229,2.498-0.408,3.738     C233.957,322.79,214.375,339.403,206.509,345.154z" data-original="#000000" class="active-path" data-old_color="#000000" fill="#333333"/>
		</g>
	</g>
</g></g> </svg>
