<svg xmlns="http://www.w3.org/2000/svg" viewBox="0 0 512 512" width="512" height="512"><path d="M488.468 448.903h-8.532V226.4C499.202 214.003 512 192.386 512 167.822a7.505 7.505 0 0 0-.988-3.721L451.499 59.953a23.587 23.587 0 0 0-20.432-11.857H80.933a23.585 23.585 0 0 0-20.432 11.857L.988 164.101A7.508 7.508 0 0 0 0 167.822c0 24.564 12.798 46.181 32.064 58.578v222.503h-8.532a7.5 7.5 0 0 0 0 15h464.936a7.5 7.5 0 0 0 0-15zM15.517 175.322h24.044a7.5 7.5 0 0 0 0-15H20.424l53.101-92.927a8.551 8.551 0 0 1 7.408-4.299h350.134a8.55 8.55 0 0 1 7.408 4.299l53.1 92.927h-19.141a7.5 7.5 0 0 0-7.5 7.5 7.5 7.5 0 0 0 7.5 7.5h24.048c-3.667 26.584-26.532 47.125-54.108 47.125-27.575 0-50.429-20.543-54.097-47.125h52.096a7.5 7.5 0 0 0 7.5-7.5 7.5 7.5 0 0 0-7.5-7.5H71.631a7.5 7.5 0 0 0 0 15h52.091c-3.668 26.582-26.523 47.125-54.097 47.125-27.576 0-50.441-20.541-54.108-47.125zm356.705 0c-3.668 26.582-26.523 47.125-54.097 47.125-27.575 0-50.429-20.543-54.097-47.125h108.194zm-124.25 0c-3.668 26.582-26.523 47.125-54.097 47.125s-50.429-20.543-54.097-47.125h108.194zm176.882 273.582h-81.193v-25.081h81.193v25.081zm0-40.081h-81.193V271.516h81.193v137.307zm40.082 40.081h-25.081V264.016a7.5 7.5 0 0 0-7.5-7.5h-96.193a7.5 7.5 0 0 0-7.5 7.5v184.887H47.064V233.674a69.289 69.289 0 0 0 22.561 3.773c27.095 0 50.624-15.556 62.125-38.207 11.501 22.65 35.03 38.207 62.125 38.207S244.499 221.891 256 199.24c11.501 22.65 35.03 38.207 62.125 38.207s50.624-15.556 62.125-38.207c11.501 22.65 35.03 38.207 62.125 38.207 7.896 0 15.48-1.34 22.561-3.772v215.229z" data-original="#000000" class="active-path" data-old_color="#000000" fill="#FFF"/><path d="M296.081 256.516H79.645a7.5 7.5 0 0 0-7.5 7.5v152.307a7.5 7.5 0 0 0 7.5 7.5h216.436a7.5 7.5 0 0 0 7.5-7.5V264.016c0-4.143-3.357-7.5-7.5-7.5zm-7.5 152.307H87.145V271.516h201.436v137.307z" data-original="#000000" class="active-path" data-old_color="#000000" fill="#FFF"/></svg>